<svg width="123" height="123" viewBox="0 0 123 123" fill="none" xmlns="http://www.w3.org/2000/svg">
<path d="M35.875 107.625V97.375H56.375V81.4875C52.1896 80.5479 48.4526 78.7755 45.1641 76.1703C41.8755 73.5651 39.4625 70.2979 37.925 66.3687C31.5187 65.6 26.1589 62.8026 21.8453 57.9766C17.5318 53.1505 15.375 47.4917 15.375 41V35.875C15.375 33.0562 16.3786 30.6432 18.3859 28.6359C20.3932 26.6286 22.8062 25.625 25.625 25.625H35.875V15.375H87.125V25.625H97.375C100.194 25.625 102.607 26.6286 104.614 28.6359C106.621 30.6432 107.625 33.0562 107.625 35.875V41C107.625 47.4917 105.468 53.1505 101.155 57.9766C96.8411 62.8026 91.4812 65.6 85.075 66.3687C83.5375 70.2979 81.1245 73.5651 77.8359 76.1703C74.5474 78.7755 70.8104 80.5479 66.625 81.4875V97.375H87.125V107.625H35.875ZM35.875 55.35V35.875H25.625V41C25.625 44.2458 26.5646 47.1714 28.4437 49.7766C30.3229 52.3818 32.8 54.2396 35.875 55.35ZM61.5 71.75C65.7708 71.75 69.401 70.2552 72.3906 67.2656C75.3802 64.276 76.875 60.6458 76.875 56.375V25.625H46.125V56.375C46.125 60.6458 47.6198 64.276 50.6094 67.2656C53.599 70.2552 57.2292 71.75 61.5 71.75ZM87.125 55.35C90.2 54.2396 92.6771 52.3818 94.5563 49.7766C96.4354 47.1714 97.375 44.2458 97.375 41V35.875H87.125V55.35Z" fill="#43454C"/>
</svg>
