<svg width="84" height="61" viewBox="0 0 84 61" fill="none" xmlns="http://www.w3.org/2000/svg">
<path d="M12.5937 54.4521L0.969378 -3.22792L0.96937 -3.22796C0.934308 -3.40193 0.916776 -3.48893 0.904023 -3.55855C0.0142716 -8.41582 3.69421 -12.9114 8.63152 -12.9987C8.7023 -13 8.79105 -13 8.96855 -13H75.2268C75.4012 -13 75.4885 -13 75.5585 -12.9988C80.4342 -12.9134 84.1 -8.523 83.3138 -3.71025C83.3025 -3.64116 83.2869 -3.55534 83.2558 -3.38371L72.7939 54.2963L72.7935 54.2984C72.7713 54.4211 72.7601 54.4828 72.7495 54.5371C72.0225 58.2504 68.7933 60.9466 65.0098 60.9992C64.9542 61 64.8911 61 64.7649 61H20.5929C20.469 61 20.407 61 20.3521 60.9992C16.6258 60.9481 13.4283 58.3307 12.642 54.6879C12.6304 54.6343 12.6182 54.5735 12.5937 54.4521Z" fill="#D0F813"/>
</svg>
