<svg width="78" height="102" viewBox="0 0 78 102" fill="none" xmlns="http://www.w3.org/2000/svg">
<g filter="url(#filter0_d_1_238)">
<path d="M31.4141 48.523C31.4141 47.3497 32.3653 46.3984 33.5387 46.3984C34.712 46.3984 35.6633 47.3497 35.6633 48.523V61.1653C35.6633 62.3386 34.712 63.2899 33.5387 63.2899C32.3653 63.2899 31.4141 62.3386 31.4141 61.1653V48.523Z" fill="#BF7F02"/>
<path d="M11.9688 81.1226C11.9688 72.7383 18.7656 65.9414 27.15 65.9414H40.0676C48.4519 65.9414 55.2488 72.7383 55.2488 81.1226V85.8641H11.9688V81.1226Z" fill="#243B6D"/>
<path d="M28.7031 66.0478C28.7031 64.3344 30.0922 62.9453 31.8056 62.9453H35.2579C36.9713 62.9453 38.3604 64.3344 38.3604 66.0478H28.7031Z" fill="#DCAE0C"/>
<path d="M22.8506 72.959H44.6133C46.4822 72.9592 47.9968 74.4739 47.9971 76.3428C47.9971 78.2119 46.4823 79.7274 44.6133 79.7275H22.8506C20.9816 79.7273 19.4668 78.2118 19.4668 76.3428C19.467 74.4739 20.9817 72.9592 22.8506 72.959Z" fill="#F9B50E" stroke="#FFEC86" stroke-width="3.91749"/>
<path d="M20.2031 71H34.8821L46.4709 81.6864H31.7918L20.2031 71Z" fill="#FFEC86"/>
<path d="M9.24219 87.9316C9.24219 86.7893 10.1682 85.8633 11.3105 85.8633H55.5991C56.7414 85.8633 57.6674 86.7893 57.6674 87.9316C57.6674 89.0739 56.7414 90 55.5991 90H11.3105C10.1682 90 9.24219 89.0739 9.24219 87.9316Z" fill="#DE9300"/>
<path d="M41.2598 22.0371L42.1387 23.6055L43.9258 23.8047L58.3506 25.4131L48.623 35.1494L47.3164 36.457L47.6602 38.2744L50.458 53.0557L34.9111 46.1191L33.4854 45.4834L32.0586 46.1191L16.5234 53.0498L19.3447 38.2803L19.6934 36.457L18.3799 35.1465L8.62891 25.4121L23.0449 23.8047L24.8311 23.6055L25.71 22.0371L33.4844 8.16016L41.2598 22.0371Z" fill="#FFEC86" stroke="#FFB802" stroke-width="7"/>
<path d="M33.4872 14.0781L40.0819 25.8483L53.2713 27.3195L44.2146 36.3825L46.6766 49.3885L33.4872 43.5034L20.2978 49.3885L22.7818 36.3825L13.7031 27.3195L26.8925 25.8483L33.4872 14.0781Z" fill="#DE9300"/>
<path d="M33.6338 43.5028L46.9208 49.3879C46.9208 49.3879 45.8574 42.0114 35.0611 36.3819C24.2649 30.7524 26.9902 25.8477 26.9902 25.8477L13.7031 27.3189L22.8491 36.3819L20.3467 49.3879L33.6338 43.5028Z" fill="#CB8600"/>
<path d="M44.6258 74.8741L46.592 71.0124L44.6258 67.1507L48.9531 68.9054L53.2804 67.1507L51.3142 71.0124L53.2804 74.8741L48.9531 73.1194L44.6258 74.8741Z" fill="white"/>
</g>
<defs>
<filter id="filter0_d_1_238" x="0.216502" y="0.216502" width="77.5059" height="101.536" filterUnits="userSpaceOnUse" color-interpolation-filters="sRGB">
<feFlood flood-opacity="0" result="BackgroundImageFix"/>
<feColorMatrix in="SourceAlpha" type="matrix" values="0 0 0 0 0 0 0 0 0 0 0 0 0 0 0 0 0 0 127 0" result="hardAlpha"/>
<feOffset dx="5.48449" dy="5.48449"/>
<feGaussianBlur stdDeviation="3.13399"/>
<feComposite in2="hardAlpha" operator="out"/>
<feColorMatrix type="matrix" values="0 0 0 0 0 0 0 0 0 0 0 0 0 0 0 0 0 0 0.3 0"/>
<feBlend mode="normal" in2="BackgroundImageFix" result="effect1_dropShadow_1_238"/>
<feBlend mode="normal" in="SourceGraphic" in2="effect1_dropShadow_1_238" result="shape"/>
</filter>
</defs>
</svg>
