<svg width="23" height="23" viewBox="0 0 23 23" fill="none" xmlns="http://www.w3.org/2000/svg">
<path d="M6.70312 21.0846C6.17604 21.0846 5.72499 20.8971 5.34996 20.5221C4.97429 20.1464 4.78646 19.695 4.78646 19.168C4.78646 18.6409 4.97429 18.1895 5.34996 17.8138C5.72499 17.4388 6.17604 17.2513 6.70312 17.2513C7.23021 17.2513 7.68126 17.4388 8.05629 17.8138C8.43196 18.1895 8.61979 18.6409 8.61979 19.168C8.61979 19.695 8.43196 20.1464 8.05629 20.5221C7.68126 20.8971 7.23021 21.0846 6.70312 21.0846ZM16.2865 21.0846C15.7594 21.0846 15.3083 20.8971 14.9333 20.5221C14.5576 20.1464 14.3698 19.695 14.3698 19.168C14.3698 18.6409 14.5576 18.1895 14.9333 17.8138C15.3083 17.4388 15.7594 17.2513 16.2865 17.2513C16.8135 17.2513 17.2649 17.4388 17.6406 17.8138C18.0156 18.1895 18.2031 18.6409 18.2031 19.168C18.2031 19.695 18.0156 20.1464 17.6406 20.5221C17.2649 20.8971 16.8135 21.0846 16.2865 21.0846ZM6.70312 16.293C5.98438 16.293 5.43333 15.9774 5.05 15.3461C4.66667 14.7156 4.65868 14.0888 5.02604 13.4659L6.31979 11.118L2.86979 3.83464H0.953125V1.91797H4.09167L8.16458 10.543H14.8969L18.6104 3.83464L20.2875 4.74505L16.574 11.4534C16.3983 11.7728 16.1667 12.0204 15.8792 12.1961C15.5917 12.3718 15.2642 12.4596 14.8969 12.4596H7.75729L6.70312 14.3763H18.2031V16.293H6.70312Z" fill="#D0F813"/>
</svg>
