<svg width="70" height="70" viewBox="0 0 70 70" fill="none" xmlns="http://www.w3.org/2000/svg">
<path d="M11.6641 40.8327V34.9994H32.0807V40.8327H11.6641ZM11.6641 29.166V23.3327H43.7474V29.166H11.6641ZM11.6641 17.4993V11.666H43.7474V17.4993H11.6641ZM37.9141 58.3327V49.3639L54.0286 33.3223C54.4661 32.8848 54.9523 32.5688 55.487 32.3743C56.0217 32.1799 56.5564 32.0827 57.0911 32.0827C57.6745 32.0827 58.2335 32.1921 58.7682 32.4108C59.3029 32.6296 59.7891 32.9577 60.2266 33.3952L62.9245 36.0931C63.3134 36.5306 63.6172 37.0167 63.8359 37.5514C64.0547 38.0862 64.1641 38.6209 64.1641 39.1556C64.1641 39.6903 64.0668 40.2372 63.8724 40.7962C63.6779 41.3553 63.362 41.8535 62.9245 42.291L46.8828 58.3327H37.9141ZM42.2891 53.9577H45.0599L53.8828 45.0619L52.5703 43.6764L51.1849 42.3639L42.2891 51.1869V53.9577ZM52.5703 43.6764L51.1849 42.3639L53.8828 45.0619L52.5703 43.6764Z" fill="#43454C"/>
</svg>
